<?xml version="1.0" standalone="no"?>
<!DOCTYPE svg PUBLIC "-//W3C//DTD SVG 20010904//EN"
 "http://www.w3.org/TR/2001/REC-SVG-20010904/DTD/svg10.dtd">
<svg version="1.0" xmlns="http://www.w3.org/2000/svg"
 width="512.000000pt" height="512.000000pt" viewBox="0 0 512.000000 512.000000"
 preserveAspectRatio="xMidYMid meet">

<g transform="translate(0.000000,512.000000) scale(0.100000,-0.100000)"
fill="#000000" stroke="none">
<path d="M2312 5107 c-48 -27 -51 -40 -82 -402 -17 -191 -30 -358 -30 -372 l0
-26 -95 6 c-89 5 -98 4 -122 -17 l-26 -22 -113 -1390 c-63 -764 -114 -1410
-114 -1436 0 -57 24 -88 69 -88 58 0 73 25 83 146 6 60 11 110 13 112 5 5
1510 -120 1516 -126 3 -4 -14 -239 -37 -522 -24 -283 -43 -525 -44 -537 0 -22
-4 -23 -75 -23 -62 0 -75 3 -75 16 0 9 11 152 25 318 22 271 24 308 11 350
-39 128 -173 202 -301 166 -58 -16 -137 -86 -158 -139 -11 -26 -25 -150 -43
-375 l-28 -336 -123 0 -123 0 0 28 c0 15 12 171 26 347 29 357 28 372 -29 447
-50 66 -107 93 -192 93 -81 -1 -134 -23 -182 -78 -53 -61 -60 -99 -88 -457
-14 -184 -28 -345 -31 -357 -4 -21 -10 -23 -79 -23 l-74 0 4 28 c3 15 16 177
31 360 24 307 25 335 10 357 -29 44 -93 45 -120 2 -10 -15 -23 -125 -40 -352
-15 -181 -29 -345 -32 -362 l-5 -33 -737 0 c-696 0 -739 -1 -777 -19 -49 -23
-89 -64 -109 -113 -41 -98 7 -212 109 -259 39 -18 125 -19 2433 -19 2626 0
2429 -5 2496 58 106 100 76 270 -59 333 -37 17 -72 19 -451 19 -399 0 -411 -1
-432 -20 -30 -28 -29 -80 1 -108 23 -22 26 -22 424 -22 375 0 401 -1 416 -18
22 -24 21 -55 -1 -75 -17 -16 -198 -17 -2394 -17 -2288 0 -2376 1 -2391 18
-22 24 -21 55 1 75 17 16 160 17 1859 17 l1840 0 21 23 c29 31 29 80 0 107
-20 19 -34 20 -215 20 -106 0 -193 3 -193 8 0 4 68 837 150 1851 83 1015 148
1853 144 1863 -10 33 -47 47 -137 54 l-88 7 6 51 c10 88 55 649 55 683 0 22
-9 43 -27 63 -26 28 -36 32 -118 40 -49 5 -100 10 -113 10 -33 0 -72 -43 -72
-79 0 -43 36 -67 115 -76 l66 -7 -5 -41 c-4 -23 -15 -154 -26 -292 -11 -137
-23 -270 -26 -294 l-6 -43 -63 4 c-36 2 -67 7 -71 11 -4 3 0 89 9 189 17 201
14 225 -34 242 -35 12 -76 1 -89 -25 -10 -17 -39 -302 -40 -377 0 -22 -1 -23
-77 -16 -43 4 -80 8 -81 10 -2 1 3 86 12 189 17 205 14 225 -35 245 -34 14
-65 6 -84 -24 -12 -18 -44 -291 -45 -380 0 -17 -7 -18 -75 -14 -42 3 -78 7
-81 10 -3 3 2 90 11 194 15 182 15 189 -3 214 -26 35 -80 39 -109 8 -19 -20
-23 -46 -38 -213 -9 -104 -17 -191 -19 -193 -2 -1 -33 0 -70 4 -63 6 -66 8
-66 33 0 39 50 624 54 636 3 7 91 4 272 -12 367 -30 387 -30 413 3 27 34 26
57 -2 90 l-23 27 -340 28 c-390 33 -382 32 -412 16z m553 -1008 c413 -33 752
-62 754 -65 6 -5 -31 -468 -38 -475 -7 -8 -1507 114 -1516 122 -3 4 1 93 10
200 18 229 24 279 33 279 4 0 345 -27 757 -61z m-12 -638 c389 -32 710 -60
713 -63 7 -7 -30 -466 -39 -474 -6 -6 -1508 114 -1515 121 -5 4 25 395 33 450
5 29 6 30 52 27 27 -2 366 -30 756 -61z m-93 -632 c415 -34 756 -62 758 -64 3
-3 -37 -477 -41 -481 -1 -1 -324 25 -717 57 -393 32 -734 59 -757 59 -38 0
-43 3 -43 23 -1 54 34 467 39 467 4 0 346 -27 761 -61z m704 -700 c5 -5 -33
-471 -39 -477 -4 -4 -1518 116 -1520 121 -2 4 36 463 39 472 3 7 258 -10 760
-51 416 -34 758 -63 760 -65z m-1175 -963 c54 -28 54 -37 24 -412 l-28 -344
-95 0 -96 0 22 273 c13 149 26 310 30 357 6 74 10 88 35 112 31 31 65 36 108
14z m740 -61 c50 -25 51 -46 25 -361 -13 -159 -24 -299 -24 -311 0 -22 -3 -23
-95 -23 l-95 0 0 28 c1 81 51 615 60 632 25 47 78 62 129 35z"/>
<path d="M2215 4030 c-13 -14 -20 -47 -27 -121 -8 -86 -7 -104 7 -125 21 -32
53 -44 88 -32 40 14 47 36 54 152 5 96 4 105 -16 125 -27 27 -81 28 -106 1z"/>
<path d="M2522 4023 c-25 -10 -40 -59 -47 -155 -7 -95 -6 -98 19 -123 30 -30
65 -32 96 -7 25 21 38 81 39 188 1 51 -3 64 -22 82 -22 21 -56 27 -85 15z"/>
<path d="M2802 3983 c-27 -26 -30 -36 -36 -132 -7 -99 -7 -104 15 -127 18 -19
32 -24 58 -22 54 5 69 35 77 153 6 89 4 102 -12 122 -32 37 -69 40 -102 6z"/>
<path d="M3082 3955 c-25 -31 -41 -209 -22 -244 27 -51 108 -46 129 7 5 15 13
69 17 120 6 88 5 94 -16 117 -32 34 -82 34 -108 0z"/>
<path d="M3379 3941 c-24 -19 -36 -81 -38 -193 -1 -50 2 -59 25 -77 33 -26 65
-27 94 -3 17 14 24 34 30 92 15 124 13 148 -15 175 -29 30 -64 32 -96 6z"/>
<path d="M2193 3410 c-38 -15 -51 -50 -58 -155 -7 -98 -6 -101 18 -123 18 -17
34 -23 57 -20 53 5 68 37 76 153 6 89 4 102 -12 122 -23 26 -52 34 -81 23z"/>
<path d="M2452 3365 c-25 -31 -41 -209 -22 -244 27 -51 108 -46 129 7 5 15 13
69 17 120 6 88 5 94 -16 117 -32 34 -82 34 -108 0z"/>
<path d="M2749 3351 c-24 -19 -36 -81 -38 -192 -1 -46 3 -59 22 -77 28 -27 67
-28 97 -4 17 14 24 34 30 92 15 124 13 148 -15 175 -29 30 -64 32 -96 6z"/>
<path d="M3035 3326 c-20 -15 -33 -83 -34 -183 -1 -75 19 -103 72 -103 51 0
68 26 78 117 12 119 11 137 -11 161 -24 25 -76 29 -105 8z"/>
<path d="M3321 3296 c-19 -20 -23 -38 -28 -133 l-6 -109 28 -22 c34 -27 55
-28 88 -2 28 22 33 39 42 162 6 73 5 79 -19 103 -32 32 -75 33 -105 1z"/>
<path d="M2133 2780 c-33 -13 -40 -36 -48 -148 -7 -99 -7 -104 15 -127 28 -30
69 -32 101 -6 23 19 37 91 38 199 1 69 -46 106 -106 82z"/>
<path d="M2405 2740 c-20 -22 -33 -92 -34 -182 -1 -73 21 -101 76 -96 55 5 70
34 78 153 6 93 5 102 -15 123 -27 29 -80 30 -105 2z"/>
<path d="M2700 2722 c-26 -21 -38 -80 -39 -184 -1 -60 1 -68 25 -87 30 -24 43
-26 78 -10 33 15 43 47 51 156 6 90 6 93 -19 118 -30 29 -65 32 -96 7z"/>
<path d="M3003 2710 c-34 -14 -44 -43 -50 -154 -5 -96 -4 -105 16 -125 44 -44
115 -16 125 51 23 148 15 206 -31 227 -28 13 -30 13 -60 1z"/>
<path d="M3272 2672 c-20 -20 -30 -78 -34 -190 -3 -63 22 -95 72 -95 55 0 70
27 81 144 8 94 7 106 -10 129 -24 33 -82 39 -109 12z"/>
<path d="M2070 2132 c-25 -21 -38 -81 -39 -189 -1 -55 2 -64 25 -82 43 -33 86
-24 111 24 6 11 13 64 17 117 7 95 7 98 -18 123 -30 30 -65 32 -96 7z"/>
<path d="M2373 2120 c-34 -14 -44 -43 -50 -154 -5 -96 -4 -105 16 -125 26 -26
71 -27 100 -3 19 14 24 33 32 117 10 112 3 145 -37 164 -29 13 -31 13 -61 1z"/>
<path d="M2642 2082 c-20 -20 -30 -78 -34 -190 -3 -63 22 -95 72 -95 55 0 70
27 81 144 8 94 7 106 -10 129 -24 33 -82 39 -109 12z"/>
<path d="M2935 2058 c-23 -20 -26 -34 -35 -122 -7 -80 -6 -105 5 -126 24 -46
69 -53 110 -17 23 19 26 33 35 121 7 80 6 105 -5 126 -24 46 -69 53 -110 18z"/>
<path d="M3245 2050 c-37 -14 -47 -38 -56 -142 -8 -93 -7 -105 10 -128 12 -17
29 -26 54 -28 66 -6 83 35 89 206 2 40 -2 56 -17 71 -25 24 -54 32 -80 21z"/>
</g>
</svg>
